<svg xmlns="http://www.w3.org/2000/svg" width="8" height="10" viewBox="0 0 8 10">
    <g fill="#7E8392" fill-rule="evenodd">
        <path fill-rule="nonzero" d="M7.111 1.286H5.778V.857c0-.473-.4-.857-.89-.857H3.112c-.49 0-.889.384-.889.857v.429H.89c-.49 0-.889.384-.889.857v.643C0 2.904.1 3 .222 3h7.556A.218.218 0 0 0 8 2.786v-.643c0-.473-.399-.857-.889-.857zm-2.222 0H3.11V.857H4.89v.429z"/>
        <path d="M6.812 4H1.188A.187.187 0 0 0 1 4.188V9.25c0 .414.337.75.75.75h4.5A.75.75 0 0 0 7 9.25V4.187A.187.187 0 0 0 6.812 4z"/>
    </g>
</svg>
